# xmcd
#
# Track frame offsets: 
#        150
#        15310
#        28492
#        44115
#        55470
#        71090
#        86900
#        98572
#        115655
#        129620
#
# Disc length: 1905 seconds
#
# Revision: 3
# Processed by: cddbd v1.5.2PL0 Copyright (c) Steve Scherf et al.
# Submitted via: ExactAudioCopyFreeDBPlugin 1.0
#
DISCID=8d076f0a
DTITLE=Doug Stone - Doug Stone
DYEAR=1990
DGENRE=Country
TTITLE0=I'd Be Better Off (In A Pine Box)
TTITLE1=Fourteen Minutes Old
TTITLE2=In A Different Light
TTITLE3=Turn This Thing Around
TTITLE4=Crying On Your Shoulders Again
TTITLE5=These Lips Don't Know How To Say Goodbye
TTITLE6=We Always Agree On Love
TTITLE7=My Hat's Off To Him
TTITLE8=It's A Good Thing I Don't Love You Anymore
TTITLE9=High Weeds And Rust
EXTD=
EXTT0=
EXTT1=
EXTT2=
EXTT3=
EXTT4=
EXTT5=
EXTT6=
EXTT7=
EXTT8=
EXTT9=
PLAYORDER=
